<?xml version="1.0" encoding="utf-8"?>
<svg xmlns="http://www.w3.org/2000/svg" xmlns:xlink="http://www.w3.org/1999/xlink" style="margin: auto; background: none; display: block; shape-rendering: auto;" width="291px" height="291px" viewBox="0 0 100 100" preserveAspectRatio="xMidYMid">
<g transform="rotate(0 50 50)">
  <rect x="49.5" y="27.5" rx="0" ry="0" width="1" height="11" fill="#3e6d8d">
    <animate attributeName="opacity" values="1;0" keyTimes="0;1" dur="0.641025641025641s" begin="-0.5827505827505828s" repeatCount="indefinite"></animate>
  </rect>
</g><g transform="rotate(32.72727272727273 50 50)">
  <rect x="49.5" y="27.5" rx="0" ry="0" width="1" height="11" fill="#3e6d8d">
    <animate attributeName="opacity" values="1;0" keyTimes="0;1" dur="0.641025641025641s" begin="-0.5244755244755245s" repeatCount="indefinite"></animate>
  </rect>
</g><g transform="rotate(65.45454545454545 50 50)">
  <rect x="49.5" y="27.5" rx="0" ry="0" width="1" height="11" fill="#3e6d8d">
    <animate attributeName="opacity" values="1;0" keyTimes="0;1" dur="0.641025641025641s" begin="-0.4662004662004662s" repeatCount="indefinite"></animate>
  </rect>
</g><g transform="rotate(98.18181818181819 50 50)">
  <rect x="49.5" y="27.5" rx="0" ry="0" width="1" height="11" fill="#3e6d8d">
    <animate attributeName="opacity" values="1;0" keyTimes="0;1" dur="0.641025641025641s" begin="-0.40792540792540793s" repeatCount="indefinite"></animate>
  </rect>
</g><g transform="rotate(130.9090909090909 50 50)">
  <rect x="49.5" y="27.5" rx="0" ry="0" width="1" height="11" fill="#3e6d8d">
    <animate attributeName="opacity" values="1;0" keyTimes="0;1" dur="0.641025641025641s" begin="-0.34965034965034963s" repeatCount="indefinite"></animate>
  </rect>
</g><g transform="rotate(163.63636363636363 50 50)">
  <rect x="49.5" y="27.5" rx="0" ry="0" width="1" height="11" fill="#3e6d8d">
    <animate attributeName="opacity" values="1;0" keyTimes="0;1" dur="0.641025641025641s" begin="-0.2913752913752914s" repeatCount="indefinite"></animate>
  </rect>
</g><g transform="rotate(196.36363636363637 50 50)">
  <rect x="49.5" y="27.5" rx="0" ry="0" width="1" height="11" fill="#3e6d8d">
    <animate attributeName="opacity" values="1;0" keyTimes="0;1" dur="0.641025641025641s" begin="-0.2331002331002331s" repeatCount="indefinite"></animate>
  </rect>
</g><g transform="rotate(229.0909090909091 50 50)">
  <rect x="49.5" y="27.5" rx="0" ry="0" width="1" height="11" fill="#3e6d8d">
    <animate attributeName="opacity" values="1;0" keyTimes="0;1" dur="0.641025641025641s" begin="-0.17482517482517482s" repeatCount="indefinite"></animate>
  </rect>
</g><g transform="rotate(261.8181818181818 50 50)">
  <rect x="49.5" y="27.5" rx="0" ry="0" width="1" height="11" fill="#3e6d8d">
    <animate attributeName="opacity" values="1;0" keyTimes="0;1" dur="0.641025641025641s" begin="-0.11655011655011654s" repeatCount="indefinite"></animate>
  </rect>
</g><g transform="rotate(294.54545454545456 50 50)">
  <rect x="49.5" y="27.5" rx="0" ry="0" width="1" height="11" fill="#3e6d8d">
    <animate attributeName="opacity" values="1;0" keyTimes="0;1" dur="0.641025641025641s" begin="-0.05827505827505827s" repeatCount="indefinite"></animate>
  </rect>
</g><g transform="rotate(327.27272727272725 50 50)">
  <rect x="49.5" y="27.5" rx="0" ry="0" width="1" height="11" fill="#3e6d8d">
    <animate attributeName="opacity" values="1;0" keyTimes="0;1" dur="0.641025641025641s" begin="0s" repeatCount="indefinite"></animate>
  </rect>
</g>
<!-- [ldio] generated by https://loading.io/ --></svg>